<svg xmlns="http://www.w3.org/2000/svg" width="122.941" height="27.41" viewBox="0 0 122.941 27.41"><g transform="translate(-0.01 0.039)"><g transform="translate(20.928 0.176)" style="isolation:isolate"><g style="isolation:isolate"><path d="M669.48,422.226V397.4h5.213v14.328h.121l6.448-7.093h5.674L674.63,417.793v4.433Zm12.413,0-5.1-7.98,2.986-3.227,7.767,11.207Z" transform="translate(-669.48 -395.459)" fill="#344aa9"/><path d="M706.673,421.43V407.953H699.58V403.84h12.306V421.43Zm2.376-20.357a3.66,3.66,0,0,1-2.483-.865,2.915,2.915,0,0,1-.993-2.291,3.028,3.028,0,0,1,.993-2.355,3.88,3.88,0,0,1,4.965,0,3.036,3.036,0,0,1,.972,2.355,2.922,2.922,0,0,1-.972,2.291,3.645,3.645,0,0,1-2.483.865Z" transform="translate(-678.23 -394.664)" fill="#344aa9"/><path d="M735.432,422.637a6.639,6.639,0,0,1-5.369-2.461,10.217,10.217,0,0,1-2.064-6.76,10.426,10.426,0,0,1,1.085-4.93,8.277,8.277,0,0,1,2.837-3.178,6.617,6.617,0,0,1,3.617-1.114,5.867,5.867,0,0,1,2.518.5,6.469,6.469,0,0,1,1.915,1.383h.142l-.248-2.731V397.35h5.213v24.826h-4.256l-.39-1.809h-.106a8.512,8.512,0,0,1-2.248,1.6A5.931,5.931,0,0,1,735.432,422.637Zm1.348-4.256a3.709,3.709,0,0,0,1.653-.369,4.255,4.255,0,0,0,1.419-1.262v-7.129a4.44,4.44,0,0,0-1.419-.908,4.339,4.339,0,0,0-1.511-.262,3.191,3.191,0,0,0-1.773.532,3.633,3.633,0,0,0-1.291,1.61,6.839,6.839,0,0,0-.482,2.752,6.6,6.6,0,0,0,.887,3.816A2.93,2.93,0,0,0,736.78,418.381Z" transform="translate(-686.49 -395.445)" fill="#344aa9"/><path d="M765.432,422.637a6.639,6.639,0,0,1-5.369-2.461,10.217,10.217,0,0,1-2.064-6.76,10.428,10.428,0,0,1,1.085-4.93,8.277,8.277,0,0,1,2.837-3.178,6.619,6.619,0,0,1,3.617-1.114,5.867,5.867,0,0,1,2.518.5,6.471,6.471,0,0,1,1.915,1.383h.142l-.248-2.731V397.35h5.213v24.826h-4.256l-.39-1.809h-.106a8.51,8.51,0,0,1-2.249,1.6A5.93,5.93,0,0,1,765.432,422.637Zm1.348-4.256a3.709,3.709,0,0,0,1.653-.369,4.254,4.254,0,0,0,1.419-1.262v-7.129a4.441,4.441,0,0,0-1.419-.908,4.371,4.371,0,0,0-1.511-.262,3.192,3.192,0,0,0-1.773.532,3.632,3.632,0,0,0-1.291,1.61,6.837,6.837,0,0,0-.482,2.752,6.6,6.6,0,0,0,.887,3.816A2.929,2.929,0,0,0,766.78,418.381Z" transform="translate(-695.211 -395.445)" fill="#344aa9"/><path d="M797.007,425.456a9.321,9.321,0,0,1-4.362-1.078,8.568,8.568,0,0,1-3.334-3.156,10.363,10.363,0,0,1,0-9.93,8.512,8.512,0,0,1,3.334-3.164,9.363,9.363,0,0,1,8.724,0,8.513,8.513,0,0,1,3.334,3.164,10.363,10.363,0,0,1,0,9.93,8.511,8.511,0,0,1-3.334,3.156A9.279,9.279,0,0,1,797.007,425.456Zm0-4.22a3.213,3.213,0,0,0,2.007-.6,3.688,3.688,0,0,0,1.206-1.738,8.951,8.951,0,0,0,0-5.32,3.688,3.688,0,0,0-1.206-1.738,3.344,3.344,0,0,0-5.213,1.738,8.8,8.8,0,0,0,0,5.32,3.639,3.639,0,0,0,1.206,1.738A3.206,3.206,0,0,0,797.007,421.236Z" transform="translate(-703.946 -398.264)" fill="#344aa9"/></g></g><g transform="translate(0.01 -0.039)" opacity="0.9" style="isolation:isolate"><path d="M645.4,421.172V407.7h6.49v-4.057l-11.306-.043v17.64ZM643.2,400.815a3.128,3.128,0,0,0,2.284-.858,2.979,2.979,0,0,0,.894-2.305,3.2,3.2,0,0,0-.915-2.369,3.383,3.383,0,0,0-4.6-.043,3.2,3.2,0,0,0-.872,2.412,3.078,3.078,0,0,0,.908,2.305,3.235,3.235,0,0,0,2.312.887Z" transform="translate(-639.99 -394.361)" fill="#6b7dc1"/></g></g></svg>